<svg width="644" height="485" viewBox="0 0 644 485" fill="none" xmlns="http://www.w3.org/2000/svg">
<path opacity="0.4" d="M9.56606 320.855C6.41703 335.924 4.27371 351.208 6.26864 366.409C10.5883 400.355 35.1705 429.142 64.6823 446.47C100.245 467.342 138.874 471.069 177.998 478.339C221.095 486.336 262.774 487.737 306.02 479.197C331.113 474.251 355.91 466.6 381.448 466.007C400.821 465.512 420.028 469.024 439.153 471.58C504.145 480.252 621.483 485.346 636.536 401.427C640.312 380.357 636.289 360.209 630.601 339.914C628.154 331.453 624.188 323.509 618.895 316.469C591.675 277.609 579.969 240.299 565.906 195.372C554.612 159.249 533.888 121.328 497.633 110.496C479.662 105.122 460.092 107.199 442.104 101.89C406.179 91.1241 385.521 54.3084 355.86 31.3255C310.62 -3.66008 247.722 -3.95685 191.188 4.7813C174.486 7.35328 157.422 10.7496 143.144 19.7845C131.438 27.1872 122.321 37.9203 113.468 48.5215C99.9646 64.4315 86.4452 80.4569 76.1408 98.5432C63.8909 119.976 56.4718 143.817 49.4812 167.509C35.797 213.903 23.4647 260.661 12.4843 307.781C11.4786 312.117 10.4728 316.552 9.56606 320.855Z" fill="#5832ED"/>
<path d="M190.001 329.741C183.323 333.039 176.646 337.985 175.162 345.223C172.096 359.566 190.281 371.239 189.127 385.863C188.517 393.695 182.532 399.828 178.048 406.291C168.419 420.14 165.699 440.435 176.613 453.295C185.45 463.715 200.948 466.485 214.253 463.336C227.558 460.187 239.116 452.174 249.931 443.815C271.035 427.493 292.237 408.566 318.633 404.708C332.202 402.713 346.018 404.972 359.718 404.395C369.189 403.818 378.605 402.562 387.895 400.636L425.551 393.579C431.685 392.425 438.213 391.073 442.599 386.638C451.057 378.081 446.77 363.177 438.889 354.093C417.819 329.774 380.608 328.323 348.903 333.929C333.207 336.715 317.578 340.755 301.701 341.084C261.571 341.826 231.532 309.644 190.001 329.741Z" fill="url(#paint0_linear_45_290)"/>
<path d="M341.22 344.695C332.976 342.849 334.625 354.472 332.465 358.792C331.115 360.996 329.404 362.958 327.404 364.595C325.392 366.255 324.074 368.607 323.71 371.19C323.676 371.676 323.779 372.161 324.007 372.591C324.423 373.102 325.008 373.447 325.656 373.564C330.33 374.934 335.354 374.438 339.67 372.179C341.715 371.213 343.409 369.634 344.517 367.662C345.408 365.58 345.836 363.33 345.77 361.067C345.935 356.253 348.078 346.228 341.22 344.695Z" fill="#F99885"/>
<path d="M333.998 368.618C333.998 368.618 310.685 369.624 320.544 376.861C330.404 384.099 345.176 375.064 346.611 373.399C348.045 371.734 346.874 368.865 346.874 368.865L333.998 368.618Z" fill="#00FF66"/>
<path d="M345.589 371.833C343.511 374.372 332.564 377.768 327.717 377.422C322.869 377.076 318.517 374.817 318.995 371.684C319.473 368.552 328.03 361.248 329.629 361.281C331.228 361.314 332.531 365.024 335.762 365.799C337.211 366.034 338.696 365.898 340.078 365.402C341.459 364.906 342.692 364.066 343.66 362.963C343.952 362.555 344.378 362.264 344.864 362.141C345.349 362.017 345.863 362.069 346.314 362.287C346.975 363.818 347.254 365.486 347.127 367.149C347.001 368.812 346.473 370.419 345.589 371.833Z" fill="white"/>
<path d="M369.346 349.295C361.103 347.382 362.751 359.006 360.608 363.309C359.259 365.519 357.548 367.487 355.546 369.129C353.531 370.783 352.217 373.139 351.87 375.724C351.821 376.203 351.918 376.686 352.15 377.109C352.557 377.633 353.145 377.986 353.799 378.098C358.48 379.45 363.502 378.954 367.829 376.713C369.849 375.745 371.528 374.187 372.644 372.245C373.537 370.165 373.959 367.913 373.88 365.65C374.028 360.753 376.188 350.746 369.346 349.295Z" fill="#F99885"/>
<path d="M362.108 373.102C362.108 373.102 338.779 374.075 348.655 381.346C358.531 388.617 373.287 379.582 374.721 377.9C376.155 376.218 374.985 373.366 374.985 373.366L362.108 373.102Z" fill="#00FF66"/>
<path d="M373.699 376.268C371.622 378.823 360.675 382.22 355.828 381.873C350.98 381.527 346.628 379.268 347.089 376.136C347.551 373.003 356.141 365.7 357.74 365.716C359.339 365.733 360.642 369.459 363.873 370.234C365.319 370.468 366.802 370.331 368.18 369.835C369.559 369.338 370.789 368.5 371.754 367.398C372.052 366.998 372.478 366.713 372.962 366.59C373.445 366.467 373.955 366.513 374.408 366.722C375.074 368.251 375.357 369.919 375.234 371.582C375.11 373.246 374.584 374.854 373.699 376.268Z" fill="white"/>
<path d="M348.227 243.531L359.174 358.808L374.969 356.863C381.217 328.736 379.684 244.569 379.684 244.569L348.227 243.531Z" fill="#5832ED"/>
<path d="M359.174 240.414L348.226 355.692L332.399 353.746C323.364 280.791 330.75 235.386 330.75 235.386L359.174 240.414Z" fill="#5832ED"/>
<path d="M387.911 207.737C387.911 208.908 387.779 210.078 387.68 211.232C387.004 220.069 386.279 229.22 383.773 237.744C382.981 240.414 382.124 243.102 379.668 244.536C376.339 246.183 372.61 246.847 368.918 246.449C365.324 246.267 361.68 245.624 358.647 245.196C350.304 244.009 341.731 242.756 334.328 238.716C332.8 238.074 331.553 236.904 330.816 235.419C330.157 233.605 330.948 231.643 331.509 229.797C334.015 221.553 332.069 212.898 332.069 204.489C332.069 202.972 332.267 201.406 332.267 199.889V198.752C332.069 196.641 331.509 194.547 331.278 192.388C330.8 188.426 330.833 184.42 331.377 180.467V180.369C331.401 180.014 331.451 179.661 331.525 179.313C332.257 174.699 333.645 170.213 335.647 165.992C337.461 162.332 340.758 160.782 344.451 158.952C347.541 157.308 350.885 156.193 354.343 155.654C356.801 155.423 359.278 155.556 361.697 156.05C369.132 157.468 378.942 161.309 384.02 167.179C385.689 169.189 386.854 171.569 387.416 174.12C388.105 177.283 388.442 180.512 388.422 183.748C388.576 191.728 388.406 199.724 387.911 207.737Z" fill="white"/>
<path opacity="0.1" d="M387.911 207.737C387.911 208.908 387.779 210.078 387.68 211.232C387.004 220.069 386.279 229.22 383.773 237.744C382.981 240.414 382.124 243.102 379.667 244.536C376.339 246.183 372.61 246.847 368.918 246.449C365.472 242.986 363.807 237.826 363.032 232.896C362.108 227.027 362.059 220.927 359.916 215.387C354.409 201.142 336.834 194.547 331.327 180.385V180.27L357.706 185.628C361.548 186.403 373.501 190.574 376.436 187.425C377.953 185.776 378.084 182.314 379.601 180.352C381.576 177.968 383.953 175.948 386.625 174.384C386.856 174.235 387.086 174.087 387.334 173.955C388.022 177.118 388.359 180.347 388.339 183.584C388.548 191.673 388.405 199.724 387.911 207.737Z" fill="#020202"/>
<path d="M288.461 135.606C288.535 137.208 288.818 138.793 289.302 140.321C290.996 144.753 293.495 148.833 296.672 152.357C302.465 159.463 308.652 166.239 315.203 172.653C318.336 175.719 328.525 188.48 333.817 185.562C335.565 184.606 335.779 182.264 335.977 180.253C336.493 176 337.903 171.904 340.115 168.234C341.203 166.288 342.423 164.409 343.627 162.513C344.517 161.095 346.825 159.364 347.056 157.765C346.578 161.062 320.759 146.867 318.913 145.779C309.283 140.023 300.007 133.697 291.132 126.835C289.201 129.335 288.251 132.454 288.461 135.606Z" fill="white"/>
<path d="M348.26 143.981C348.271 141.777 348.408 139.575 348.672 137.387C348.87 135.474 349.183 133.545 349.562 131.649C349.577 131.085 349.717 130.531 349.97 130.026C350.224 129.522 350.586 129.08 351.03 128.731C353.998 126.897 357.433 125.958 360.922 126.027C362.998 125.704 365.118 126.217 366.817 127.453C368.516 128.688 369.657 130.547 369.99 132.622C370.055 133.02 370.088 133.422 370.089 133.825C370.616 138.673 369.347 143.503 368.654 148.318C368.094 152.049 367.895 155.825 368.061 159.595C366.238 160.798 364.15 161.539 361.977 161.755C360.956 161.742 359.944 161.569 358.976 161.243C358.707 161.194 358.45 161.091 358.221 160.941C357.991 160.791 357.794 160.597 357.641 160.37C357.493 159.969 357.459 159.535 357.542 159.117C357.542 158.721 357.641 158.342 357.641 157.93C357.803 155.732 357.759 153.524 357.509 151.335C357.513 151.243 357.498 151.151 357.464 151.066C357.43 150.981 357.378 150.904 357.311 150.84C357.167 150.791 357.01 150.791 356.866 150.84H356.256C355.158 150.923 354.056 150.923 352.959 150.84C351.655 150.72 350.438 150.135 349.529 149.191C348.447 147.685 347.992 145.817 348.26 143.981Z" fill="#F99885"/>
<path d="M352.76 129.786C351.994 130.099 351.136 130.099 350.37 129.786C349.571 129.348 348.91 128.697 348.457 127.907C348.109 127.364 347.837 126.776 347.649 126.159C347.369 124.919 347.454 123.624 347.892 122.43C348.331 121.237 349.106 120.196 350.122 119.432C351.155 118.682 352.328 118.149 353.572 117.866C354.816 117.583 356.105 117.555 357.36 117.784C358.011 117.354 358.748 117.072 359.52 116.959C362.484 116.059 365.618 115.867 368.67 116.399C370.408 116.897 372.036 117.719 373.468 118.822C374.868 119.733 376.059 120.93 376.963 122.334C377.845 124.124 378.403 126.055 378.612 128.039C379.079 130.174 379.333 132.35 379.37 134.535C379.369 135.488 379.191 136.433 378.843 137.321C378.408 138.304 377.786 139.195 377.013 139.942C375.884 141.097 374.596 142.086 373.188 142.877C372.199 143.421 371.061 143.982 370.731 145.053C370.633 145.558 370.583 146.072 370.583 146.587C370.529 147.339 370.227 148.052 369.726 148.615C369.396 148.977 368.802 149.884 368.308 149.966C367.813 150.049 367.384 149.488 367.236 148.994C366.624 146.809 366.781 144.481 367.681 142.399C368.289 141.398 368.656 140.269 368.753 139.101C368.637 137.931 367.104 137.008 366.28 137.7C365.455 138.393 365.373 140.074 364.433 139.744C365.505 136.447 364.103 132.16 360.872 130.825C359.141 130.299 357.339 130.048 355.53 130.083C354.671 129.916 353.8 129.822 352.925 129.803L352.76 129.786Z" fill="#473F47"/>
<path d="M356.206 150.758C358.765 150.278 361.267 149.538 363.675 148.548C363.889 156.33 357.558 157.929 357.558 157.929C357.72 155.732 357.676 153.524 357.426 151.335C357.43 151.243 357.415 151.151 357.381 151.066C357.347 150.981 357.295 150.904 357.228 150.84C357.084 150.791 356.927 150.791 356.783 150.84H356.206V150.758Z" fill="#DE9F93"/>
<path d="M184.824 278.269L185.813 274.46L188.401 264.568C188.471 264.102 188.684 263.67 189.011 263.331C189.391 262.985 190.66 266.711 191.122 266.629C193.945 266.46 196.778 266.666 199.547 267.239C200.289 267.387 197.272 309.594 196.991 313.732C196.381 323.212 196.892 341.991 198.277 341.876C195.507 342.107 189.836 342.403 188.632 341.167C186.472 339.007 190.166 325.108 186.143 308.786C185.158 304.779 184.605 300.678 184.494 296.553C184.346 290.667 183.34 284.105 184.824 278.269Z" fill="#A67C52"/>
<path d="M196.892 337.54C197.448 337.254 198.034 337.033 198.64 336.88C199.124 336.899 199.597 337.023 200.028 337.246C200.458 337.468 200.834 337.782 201.129 338.166L213.231 349.559C213.61 349.905 214.006 350.367 213.824 350.845C213.643 351.323 213.264 351.372 212.901 351.488C205.597 353.582 190.215 353.977 184.873 347.3C184.297 346.653 183.853 345.899 183.569 345.08C183.284 344.261 183.164 343.395 183.214 342.53C183.265 341.665 183.485 340.818 183.863 340.038C184.241 339.258 184.769 338.561 185.417 337.985L185.912 337.589C190.594 333.781 192.457 338.991 196.892 337.54Z" fill="#473F47"/>
<path d="M204.657 325.224C204.975 324.658 205.235 324.062 205.432 323.443C206.092 321.333 205.597 319.124 205.745 316.997C205.828 315.872 205.828 314.742 205.745 313.617C205.531 310.732 205.152 307.83 204.789 304.961C203.888 300.057 203.299 295.101 203.025 290.123C203.025 286.347 206.092 274.46 206.092 274.46L203.025 258.995H218.506C218.506 258.995 220.485 271.954 219.941 273.389C218.824 276.327 218.157 279.418 217.962 282.555C217.962 288.128 217.22 293.767 216.792 299.306C216.319 305.373 215.83 311.419 215.324 317.442L214.78 324.037C214.63 327.237 215.193 330.43 216.429 333.385C216.94 334.737 217.468 336.386 216.544 337.474C215.621 338.562 213.56 338.183 212.175 337.474C210.269 336.202 208.255 335.099 206.158 334.176C205.323 333.993 204.526 333.67 203.8 333.22C203.179 332.574 202.772 331.754 202.634 330.869C202.495 329.984 202.632 329.079 203.025 328.274C203.52 327.235 204.064 326.213 204.657 325.224Z" fill="#EFAC88"/>
<path d="M210.774 100.456C215.802 102.517 217.022 109.936 216.66 114.635C216.214 120.52 211.285 126.406 212.983 132.309C214.082 135.339 214.602 138.55 214.516 141.772C214.186 144.971 212.208 148.252 209.092 149.01C208.345 149.111 207.614 149.305 206.916 149.587C206.007 150.213 205.316 151.106 204.937 152.143C202.037 158.025 196.919 162.514 190.709 164.623C187.611 165.607 184.302 165.723 181.143 164.958C177.983 164.194 175.093 162.578 172.787 160.287C168.385 155.523 167.709 147.46 171.881 142.514C173.084 141.096 174.683 139.777 174.799 137.931C174.763 137.084 174.636 136.244 174.42 135.425C174.182 133.828 174.454 132.198 175.197 130.765C175.94 129.332 177.116 128.17 178.558 127.445C180.883 126.34 183.85 126.39 185.647 124.527C187.444 122.664 187.164 119.136 186.999 116.283C186.126 101.148 197.535 94.9985 210.774 100.456Z" fill="#473F47"/>
<path d="M178.081 226.681C176.877 238.485 178.987 250.537 181.098 262.293C181.592 265.062 182.202 268.03 184.247 269.959C185.862 271.261 187.788 272.119 189.836 272.449C203.239 275.557 217.296 274.089 229.767 268.277L226.602 238.947C225.761 231.149 224.854 223.169 222.052 215.783C221.54 214.414 213.462 200.845 215.358 199.675C211.533 202.032 207.114 201.686 202.712 202.708C197.521 203.929 192.526 205.871 187.874 208.479C185.492 209.534 183.427 211.191 181.88 213.287C180.334 215.383 179.359 217.845 179.053 220.432C178.622 222.497 178.297 224.582 178.081 226.681Z" fill="#00FF66"/>
<path d="M178.081 226.681C176.877 238.485 178.987 250.537 181.098 262.293C181.592 265.062 182.202 268.03 184.247 269.959C185.862 271.261 187.788 272.119 189.836 272.449C203.239 275.557 217.296 274.089 229.767 268.277L226.602 238.947C225.761 231.149 224.854 223.169 222.052 215.783C221.54 214.414 213.462 200.845 215.358 199.675C211.533 202.032 207.114 201.686 202.712 202.708C197.521 203.929 192.526 205.871 187.874 208.479C185.492 209.534 183.427 211.191 181.88 213.287C180.334 215.383 179.359 217.845 179.053 220.432C178.622 222.497 178.297 224.582 178.081 226.681Z" fill="url(#paint1_linear_45_290)"/>
<path d="M210.526 131.6C210.526 131.6 206.636 136.546 206.619 139.563C206.576 141.572 206.299 143.569 205.795 145.515C205.795 145.515 205.185 149.158 203.173 147.74C201.162 146.323 194.089 136.843 194.089 136.843L201.805 126.472L210.526 131.6Z" fill="#A67C52"/>
<path d="M218.589 218.965C218.589 218.965 216.545 211.826 213.923 203.319C214.022 208.792 213.379 217.003 212.275 218.157C211.417 219.031 199.613 221.784 193.133 221.537C191.27 221.537 189.473 221.388 187.907 221.289C184.807 221.125 182.631 220.976 182.631 220.976C182.631 220.976 180.603 211.694 180.982 207.259C181.361 202.824 186.621 192.734 187.231 190.112C187.758 187.821 185.582 179.313 185.055 177.252L184.923 176.791C184.854 174.892 184.678 172.998 184.395 171.119C183.569 168.045 182.963 164.915 182.581 161.755C182.53 159.636 182.354 157.522 182.054 155.424C181.757 153.775 181.197 152.126 180.834 150.477C180.389 148.999 180.389 147.422 180.834 145.944C181.743 144.205 183.149 142.776 184.873 141.838C186.901 140.453 188.896 139.002 190.858 137.519C192.507 136.233 194.815 135.243 195.903 133.314C196.595 133.941 196.332 135.227 196.447 136.117C196.928 139.811 198.635 143.236 201.294 145.845C201.761 146.438 202.388 146.885 203.101 147.133C203.814 147.381 204.583 147.42 205.317 147.246C205.993 146.887 206.524 146.304 206.817 145.597C207.922 143.24 207.164 140.47 206.356 138.013L214.039 140.882C214.692 141.042 215.28 141.398 215.725 141.902C216.17 142.406 216.45 143.034 216.528 143.701C217.963 148.961 219.232 154.286 220.304 159.628C221.008 162.315 221.215 165.109 220.914 167.871C219.892 174.038 217.979 180.006 217.402 186.254C216.957 188.9 217.155 191.615 217.979 194.168C220.897 201.241 222.48 218.899 222.48 218.899L218.589 218.965Z" fill="#ED3232"/>
<path opacity="0.1" d="M189.868 203.104C189.591 204.074 189.541 205.095 189.72 206.088L188.071 209.27C189.356 211.61 190.036 214.234 190.05 216.904C189.979 217.749 189.742 218.572 189.351 219.324C188.961 220.077 188.425 220.745 187.775 221.289C184.675 221.124 182.499 220.976 182.499 220.976C182.499 220.976 180.471 211.694 180.85 207.259C181.229 202.824 186.489 192.734 187.099 190.112C187.626 187.821 185.45 179.313 184.922 177.252C185.417 175.505 185.945 173.741 186.456 171.993L189.753 161.029C191.602 164.907 192.901 169.025 193.611 173.262C194.009 174.682 194.317 176.124 194.534 177.582C194.633 179.033 195.21 183.237 195.276 184.688C195.165 186.684 194.601 188.63 193.627 190.376C191.957 194.484 190.698 198.748 189.868 203.104Z" fill="#020202"/>
<path d="M241.621 139.777C251.018 136.15 259.262 130.165 267.885 124.939C269.814 123.785 272.171 122.647 274.183 123.62C275.074 124.191 275.768 125.023 276.169 126.002C276.571 126.982 276.66 128.062 276.425 129.094C275.601 134.568 270.16 137.881 265.725 141.228C258.289 146.817 252.535 154.27 245.479 160.403C238.422 166.536 229.503 171.449 220.27 170.295C219.036 170.223 217.851 169.793 216.857 169.058C216.139 168.399 215.576 167.588 215.208 166.684C213.082 162.035 209.092 145.103 215.208 142.201C218.176 140.783 223.567 142.894 226.749 142.844C231.847 142.694 236.88 141.656 241.621 139.777Z" fill="#ED3232"/>
<path d="M212.505 105.369C212.679 105.468 212.83 105.603 212.95 105.764C213.691 107.059 214.188 108.478 214.417 109.952C216.445 117.124 219.215 123.983 215.258 131.122C215.007 131.7 214.614 132.206 214.116 132.593C213.617 132.979 213.029 133.233 212.406 133.331C209.495 133.934 206.464 133.453 203.882 131.979C202.397 131.278 200.955 130.491 199.562 129.621C198.919 129.212 198.391 128.644 198.029 127.972C197.716 127.297 197.205 126.637 197.419 125.846C197.645 125.306 197.843 124.756 198.013 124.197C198.126 123.318 197.964 122.425 197.551 121.641C197.356 121.296 197.303 120.888 197.403 120.504C197.666 119.894 198.54 119.943 199.183 119.778C199.721 119.575 200.209 119.26 200.615 118.853C201.022 118.447 201.337 117.958 201.541 117.421C202.183 116.133 202.681 114.779 203.025 113.381C203.208 112.171 203.552 110.99 204.047 109.87C205.011 108.319 206.41 107.087 208.07 106.325C209.125 105.764 211.268 104.594 212.505 105.369Z" fill="#A67C52"/>
<path d="M215.72 115.822L216.363 115.261C216.363 115.261 216.544 115.657 216.775 115.624C216.981 115.569 217.18 115.491 217.368 115.393C217.368 115.393 217.006 115.904 216.758 115.953C216.418 115.986 216.076 115.986 215.736 115.953L215.72 115.822Z" fill="#8A3C1F"/>
<path d="M216.28 115.311L216.544 114.816C216.544 114.816 216.775 115.014 216.907 114.931C217.019 114.847 217.124 114.753 217.22 114.651C217.22 114.651 217.121 115.047 216.973 115.146C216.764 115.244 216.542 115.31 216.313 115.344L216.28 115.311Z" fill="#8A3C1F"/>
<path opacity="0.1" d="M275.931 224.224C274.282 225.741 272.633 227.225 270.985 228.593C267.951 230.732 265.12 233.143 262.527 235.798C260.315 238.665 258.388 241.741 256.773 244.981C255.124 247.9 252.057 250.175 250.656 252.978C247.535 259.35 246.201 266.45 246.798 273.52C247.375 280.89 249.964 288.507 247.408 295.465C246.902 296.94 246.061 298.277 244.951 299.372C243.867 300.309 242.621 301.041 241.275 301.532C238.392 302.69 235.441 303.67 232.438 304.467C230.986 304.914 229.449 305.01 227.953 304.747C227.096 304.582 224.92 303.098 224.326 303.098C226.519 302.785 228.58 301.864 230.276 300.439C231.972 299.014 233.235 297.142 233.922 295.036C234.96 291.739 234.449 288.145 234.466 284.666C234.6 280.629 235.091 276.613 235.933 272.663L239 255.83C240.137 249.614 241.984 244.586 246.551 240.184C252.123 234.825 256.558 228.412 262.774 223.581C267.555 219.855 272.947 216.986 278.008 213.689C285.147 208.941 290.769 202.956 297.941 198.686C302.129 196.18 304.849 191.877 307.404 187.738L321.039 165.728C321.878 165.726 322.686 166.044 323.298 166.617C323.911 167.19 324.282 167.974 324.337 168.811C324.4 170.471 324.013 172.118 323.216 173.576C320.05 180.764 316.522 187.821 312.845 194.745C309.795 200.499 304.849 201.851 299.194 204.736C290.011 209.254 283.366 217.25 275.931 224.224Z" fill="#020202"/>
<path d="M179.729 148.037C179.365 149.546 179.101 151.077 178.938 152.621C178.467 156.313 177.661 159.956 176.53 163.502L166.226 157.897C163.736 156.561 156.861 154.055 154.916 157.732C152.97 161.408 160.142 168.135 162.385 170.41C166.494 174.407 170.832 178.161 175.376 181.654C176.251 182.452 177.31 183.019 178.459 183.303C179.47 183.346 180.478 183.164 181.411 182.771C182.343 182.378 183.176 181.782 183.851 181.028C187.102 178.467 189.56 175.037 190.94 171.136C192.144 166.964 191.352 162.513 190.495 158.259C189.357 152.588 187.593 146.24 182.466 143.602C181.061 144.714 180.093 146.284 179.729 148.037Z" fill="#ED3232"/>
<path d="M154.768 151.516C151.89 150.076 148.72 149.315 145.502 149.29C145.136 149.223 144.759 149.281 144.43 149.455C144.177 149.655 143.988 149.924 143.886 150.23C143.105 152.071 142.748 154.065 142.842 156.063C142.936 158.06 143.479 160.012 144.43 161.771C145.09 162.958 145.931 164.046 146.59 165.233C147.041 166.197 147.593 167.109 148.239 167.954C149.293 169.044 150.729 169.682 152.245 169.734C153.75 169.764 155.239 169.424 156.581 168.745C157.209 168.524 157.777 168.16 158.24 167.682C158.704 167.205 159.05 166.626 159.252 165.992C159.549 164.343 158.609 162.909 158.939 161.276C159.346 160.259 159.601 159.186 159.697 158.094C159.435 156.693 158.854 155.372 157.999 154.231C157.144 153.09 156.039 152.161 154.768 151.516Z" fill="#A67C52"/>
<path d="M203.19 439.66L203.289 439.99C203.948 441.639 206.009 442.216 207.79 442.43C209.432 442.614 211.084 442.691 212.736 442.661C213.524 442.684 214.31 442.572 215.061 442.331C215.775 442.036 216.442 441.636 217.039 441.144L221.837 437.583C223.185 436.636 224.414 435.528 225.497 434.286C226.596 433.041 227.184 431.428 227.146 429.768C227.089 428.95 226.782 428.169 226.266 427.532C225.749 426.895 225.049 426.432 224.261 426.207C223.259 426.075 222.245 426.075 221.243 426.207C219.199 426.306 216.297 425.449 215.539 423.371C215.336 422.474 214.851 421.665 214.154 421.063C213.462 420.73 212.679 420.637 211.928 420.799C210.24 420.861 208.572 421.183 206.982 421.755C206.196 422.047 205.484 422.508 204.896 423.106C204.309 423.705 203.862 424.426 203.586 425.218C203.421 425.953 203.355 426.707 203.388 427.46C203.47 429.02 203.47 430.583 203.388 432.142C203.154 434.101 203.044 436.072 203.058 438.045C203.028 438.587 203.072 439.131 203.19 439.66Z" fill="#262836"/>
<path d="M249.783 440.205C246.574 441.689 243.269 442.956 239.891 443.997C238.539 444.571 237.03 444.658 235.62 444.244C235.057 443.967 234.56 443.569 234.167 443.079C233.774 442.589 233.493 442.019 233.345 441.408C233.038 440.197 232.91 438.947 232.966 437.699C233.192 435.77 233.595 433.866 234.17 432.011C234.466 430.362 234.697 428.565 234.944 426.834C235.291 424.361 235.62 421.887 235.917 419.398L244.556 421.244C245.463 421.442 246.321 424.921 246.865 425.663C247.271 426.205 247.792 426.65 248.39 426.966C248.989 427.283 249.65 427.463 250.327 427.493C251.807 427.282 253.3 427.16 254.795 427.13C255.751 427.362 256.604 427.903 257.221 428.67C257.838 429.436 258.185 430.384 258.208 431.368C258.199 432.347 257.988 433.313 257.588 434.207C257.188 435.101 256.607 435.902 255.883 436.561C254.418 437.87 252.747 438.929 250.937 439.694L249.783 440.205Z" fill="#262836"/>
<path d="M249.931 430.626C247.656 431.907 245.299 433.036 242.875 434.005L242.644 434.088C238.637 435.654 234.153 429.389 234.153 429.389C234.153 429.389 228.514 394.469 228.762 380.01C228.943 370.118 226.602 355.923 223.057 330.236C222.15 356.483 217.715 367.991 218.853 377.405C220.584 391.7 218.523 427.229 218.523 427.229C218.523 427.229 214.748 434.137 210.593 433.214H210.346C207.85 432.634 205.398 431.879 203.009 430.955C203.009 430.955 198.178 382.055 198.178 369.129C198.178 356.203 198.722 344.695 198.722 344.695L196.134 303.791L206.916 288.144L207.79 287.782L208.631 286.957L220.568 278.203C220.568 278.203 220.568 280.247 220.337 283.742L229.603 288.688L230.509 289.364L231.4 289.579L246.93 292.349C246.93 292.349 251.003 354.999 252.322 367.826C253.641 380.653 249.931 430.626 249.931 430.626Z" fill="#00FF66"/>
<path d="M249.931 430.626C247.656 431.907 245.299 433.036 242.875 434.005L242.644 434.088C238.637 435.654 234.153 429.389 234.153 429.389C234.153 429.389 228.514 394.469 228.762 380.01C228.943 370.118 226.602 355.923 223.057 330.236C222.15 356.483 217.715 367.991 218.853 377.405C220.584 391.7 218.523 427.229 218.523 427.229C218.523 427.229 214.748 434.137 210.593 433.214H210.346C207.85 432.634 205.398 431.879 203.009 430.955C203.009 430.955 198.178 382.055 198.178 369.129C198.178 356.203 198.722 344.695 198.722 344.695L196.134 303.791L206.916 288.144L207.79 287.782L208.631 286.957L220.568 278.203C220.568 278.203 220.568 280.247 220.337 283.742L229.603 288.688L230.509 289.364L231.4 289.579L246.93 292.349C246.93 292.349 251.003 354.999 252.322 367.826C253.641 380.653 249.931 430.626 249.931 430.626Z" fill="url(#paint2_linear_45_290)"/>
<path d="M237.038 183.353C238.011 184.342 239.494 185.331 239.082 186.65C238.851 187.342 238.126 187.738 237.565 188.299C236.89 189.01 236.362 189.848 236.014 190.766C235.666 191.683 235.504 192.66 235.537 193.641C235.587 195.602 235.308 197.558 234.713 199.427C234.38 200.363 233.733 201.153 232.882 201.664C232.031 202.176 231.029 202.376 230.047 202.23C228.91 201.917 227.789 200.928 226.75 201.389C225.711 201.851 225.645 202.774 225.217 203.549C224.599 204.471 223.736 205.202 222.725 205.659C221.714 206.117 220.596 206.282 219.496 206.138C217.296 205.824 215.176 205.097 213.247 203.994C212.418 203.659 211.706 203.085 211.203 202.346C210.869 201.653 210.787 200.866 210.972 200.12C211.651 197.876 212.772 195.791 214.269 193.987C216.641 190.345 218.064 186.168 218.407 181.836C218.638 178.819 218.407 175.488 220.353 173.164C222.974 169.998 229.322 170.015 232.603 172.339C236.164 174.763 234.054 180.237 237.038 183.353Z" fill="#FDB9A9"/>
<path d="M233.147 169.685C232.772 170.432 232.202 171.064 231.498 171.515C230.064 172.356 228.827 173.361 227.426 174.285C226.106 175.167 225.178 176.526 224.837 178.077C224.26 180.88 225.793 183.963 224.92 186.732C224.573 187.293 223.65 186.947 223.271 186.403C222.892 185.859 222.71 185.166 222.15 184.836C221.21 184.292 220.04 185.216 219.627 186.221C219.221 187.411 219.284 188.71 219.801 189.855C220.319 191.001 221.253 191.906 222.414 192.388C222.282 193.261 221.128 193.624 220.237 193.492C219.358 193.245 218.447 193.129 217.533 193.146C215.473 193.525 214.698 196.443 212.587 196.757C211.878 196.706 211.189 196.496 210.573 196.142C209.956 195.788 209.427 195.299 209.026 194.712L206.537 191.86C206.137 191.32 205.696 190.813 205.218 190.343C204.657 189.914 203.717 189.881 203.256 189.354C202.794 188.826 203.256 187.59 202.761 186.947C202.513 186.716 202.221 186.537 201.904 186.419C201.184 186.056 200.61 185.457 200.28 184.721C199.95 183.986 199.883 183.159 200.09 182.38C200.14 182.185 200.14 181.981 200.09 181.786C200.008 181.506 199.694 181.391 199.431 181.259C198.672 180.77 198.114 180.026 197.857 179.161C197.6 178.296 197.661 177.367 198.029 176.543C198.413 175.6 198.972 174.739 199.678 174.004C199.948 173.601 200.327 173.284 200.771 173.088C201.214 172.892 201.705 172.827 202.184 172.9L202.563 169.306C202.598 168.574 202.777 167.857 203.091 167.195C203.611 166.546 204.275 166.026 205.03 165.677C205.786 165.328 206.612 165.159 207.443 165.184L206.619 162.2C206.538 162.015 206.496 161.816 206.496 161.614C206.496 161.413 206.538 161.214 206.619 161.029C206.834 160.755 207.148 160.578 207.493 160.534C208.457 160.27 209.446 160.104 210.444 160.04C210.065 159.212 209.783 158.344 209.603 157.451C209.538 157.287 209.538 157.104 209.603 156.94C209.682 156.777 209.81 156.642 209.97 156.556C210.13 156.47 210.314 156.437 210.494 156.462C210.859 156.528 211.233 156.528 211.598 156.462C211.598 156.462 211.054 153.956 211.021 153.725C210.938 153.334 210.933 152.93 211.006 152.537C211.08 152.143 211.231 151.768 211.45 151.434C211.741 151.086 212.117 150.819 212.542 150.66C212.967 150.501 213.425 150.455 213.873 150.527C214.769 150.678 215.629 150.991 216.412 151.45C216.412 150.477 217.566 149.983 218.556 149.917C220.405 149.811 222.25 150.176 223.92 150.978C225.589 151.779 227.028 152.991 228.102 154.5C228.273 154.767 228.478 155.011 228.712 155.226C229.146 155.524 229.632 155.736 230.146 155.852C230.923 156.201 231.613 156.717 232.166 157.364C232.719 158.011 233.122 158.773 233.345 159.595C233.756 161.209 233.922 162.877 233.839 164.541C233.88 165.831 233.764 167.121 233.493 168.382C233.411 168.825 233.295 169.26 233.147 169.685Z" fill="#FF681C"/>
<path d="M219.496 200.796C221.761 201.756 223.964 202.857 226.091 204.093C226.745 204.444 227.309 204.94 227.74 205.544C227.974 205.873 228.118 206.258 228.159 206.66C228.199 207.061 228.134 207.467 227.97 207.836C227.377 208.875 226.008 208.496 224.97 208.133C220.135 206.491 215.032 205.785 209.934 206.055C209.591 206.103 209.242 206.058 208.923 205.925C208.604 205.791 208.327 205.574 208.12 205.297C207.997 204.963 207.95 204.606 207.985 204.252C208.019 203.898 208.133 203.556 208.318 203.253C210.972 198.026 215.259 198.867 219.496 200.796Z" fill="white"/>
<path d="M294.083 207.325C288.395 210.622 282.69 213.771 278.304 218.569C275.007 222.147 272.682 226.466 269.385 229.994C266.088 233.523 261.966 236.21 258.372 239.442C251.365 245.756 247.573 257.693 246.748 266.942C246.567 269.137 246.567 271.342 246.748 273.537C247.325 280.907 249.914 288.524 247.358 295.481C246.852 296.956 246.011 298.293 244.902 299.389C243.817 300.326 242.572 301.058 241.225 301.548C238.865 302.517 236.404 303.22 233.888 303.642C232.444 303.9 230.985 304.06 229.519 304.12C224.144 304.318 218.803 303.263 213.444 303.543C208.877 303.774 204.36 304.945 199.793 304.796C198.949 304.859 198.101 304.737 197.31 304.438C196.518 304.139 195.801 303.67 195.21 303.065C194.699 302.27 194.383 301.367 194.286 300.427C192.488 290.636 191.567 280.705 191.533 270.75C191.544 264.258 191.142 257.771 190.33 251.329C189.126 242.492 183.207 235.171 178.789 227.653C176.184 223.284 173.579 218.899 170.71 214.678C167.841 210.457 164.923 206.715 162.334 202.544C159.233 197.232 156.48 191.724 154.091 186.056C152.277 182.067 150.48 178.06 149.046 173.905L155.294 168.729C161.675 173.872 165.187 181.654 170.43 188.002C174.909 193.174 180.073 197.712 185.779 201.488C188.463 203.578 191.493 205.18 194.732 206.22C199.217 207.226 203.896 206.929 208.218 205.363C219.528 201.488 232.141 209.204 243.748 207.968C250.507 207.259 256.673 203.681 262.955 201.373C270.127 198.653 277.414 196.196 284.767 194.036C286.369 193.654 287.903 193.031 289.318 192.19C290.452 191.335 291.477 190.344 292.368 189.238C299.587 180.893 307.225 172.92 315.252 165.349C315.652 164.889 316.19 164.571 316.785 164.442C317.385 164.456 317.963 164.664 318.434 165.035L323.875 168.333C322.92 173.242 320.905 177.884 317.972 181.935C316.173 184.144 314.49 186.444 312.927 188.826C310.833 192.486 309.993 196.674 306.662 199.411C302.699 202.398 298.491 205.046 294.083 207.325Z" fill="white"/>
<path d="M142.419 167.064C141.871 166.421 141.531 165.628 141.446 164.788C141.403 164.366 141.525 163.943 141.786 163.609C142.047 163.274 142.427 163.053 142.847 162.991C141.825 159.713 141.577 156.242 142.122 152.852C142.235 151.738 142.664 150.68 143.358 149.802C143.889 149.332 144.508 148.973 145.179 148.744C145.849 148.514 146.559 148.42 147.266 148.466C148.023 148.371 148.787 148.579 149.393 149.043C149.687 149.362 149.911 149.738 150.052 150.148C152.149 155.094 153.971 160.152 155.509 165.299C156.135 166.909 156.317 168.657 156.037 170.361C153.943 178.44 145.172 170.74 142.419 167.064Z" fill="#FDB9A9"/>
<path d="M363.246 201.373C361.103 200.735 359.097 199.707 357.328 198.339C348.677 192.382 340.17 186.216 331.806 179.841C329.53 178.093 327.041 175.95 326.942 173.081C326.843 169.932 329.844 167.393 332.96 166.882C336.102 166.611 339.264 167.103 342.176 168.316L361.12 174.499C361.972 174.86 362.909 174.974 363.823 174.829C364.866 174.431 365.743 173.694 366.313 172.735C369.033 169.256 372.578 165.843 376.997 165.629C387.713 165.118 390.335 180.121 386.444 187.623C383.031 194.185 370.616 203.071 363.246 201.373Z" fill="white"/>
<path d="M276.722 109.688C276.995 109.204 277.405 108.81 277.901 108.558C278.397 108.306 278.956 108.206 279.508 108.27C280.976 108.584 281.602 110.298 281.899 111.766C282.79 116.378 282.79 121.118 281.899 125.73C281.798 126.419 281.587 127.087 281.273 127.709C280.809 128.417 280.188 129.009 279.459 129.44C275.288 132.16 270.061 129.357 271.76 124.312C272.485 122.186 273.804 120.323 274.496 118.163C275.42 115.525 275.271 112.112 276.722 109.688Z" fill="#A67C52"/>
<path d="M287.192 119.037C286.466 115.888 285.84 112.442 283.614 110.167C283.424 109.937 283.18 109.756 282.905 109.639C282.537 109.558 282.151 109.616 281.823 109.802C281.494 109.987 281.246 110.287 281.125 110.645C280.901 111.364 280.844 112.126 280.96 112.871C281.178 115.876 280.956 118.898 280.3 121.84C279.696 123.699 279.471 125.662 279.641 127.61C280.349 129.99 281.784 132.089 283.746 133.611C284.9 134.699 286.433 135.887 287.901 135.26C288.292 135.083 288.645 134.831 288.94 134.518C290.588 132.869 292.352 129.292 291.198 126.967C290.588 125.747 289.253 124.824 288.626 123.488C287.986 122.062 287.505 120.569 287.192 119.037Z" fill="#F99885"/>
<path d="M337.922 164.178C338.525 167.081 338.19 170.101 336.965 172.801C336.328 173.907 335.427 174.838 334.343 175.512C333.258 176.185 332.024 176.579 330.75 176.659C329.482 176.711 328.223 176.434 327.094 175.857C325.964 175.279 325.003 174.42 324.303 173.362C323.114 171.284 322.755 168.834 323.298 166.503C323.842 164.212 324.667 161.997 325.754 159.908C327.057 157.122 329.052 150.428 333.305 152.654C336.273 154.171 337.922 161.112 337.922 164.178Z" fill="#F99885"/>
<path d="M325.425 151.829C326.629 150.181 328.723 148.763 330.602 149.439C332.482 150.115 333.257 152.885 333.273 155.11C333.301 160.023 332.354 164.893 330.487 169.438C330.204 170.207 329.798 170.926 329.283 171.564C328.113 172.867 323.826 174.367 322.227 173.213C320.957 172.257 320.578 168.267 320.578 166.701C320.777 161.389 322.455 156.238 325.425 151.829Z" fill="#FDB9A9"/>
<defs>
<linearGradient id="paint0_linear_45_290" x1="297.331" y1="149.406" x2="312.186" y2="491.051" gradientUnits="userSpaceOnUse">
<stop offset="0.01"/>
<stop offset="0.08" stop-opacity="0.69"/>
<stop offset="0.21" stop-opacity="0.32"/>
<stop offset="1" stop-opacity="0"/>
</linearGradient>
<linearGradient id="paint1_linear_45_290" x1="6125.67" y1="13358.8" x2="8457.27" y2="13475.3" gradientUnits="userSpaceOnUse">
<stop offset="0.01"/>
<stop offset="0.08" stop-opacity="0.69"/>
<stop offset="0.21" stop-opacity="0.32"/>
<stop offset="1" stop-opacity="0"/>
</linearGradient>
<linearGradient id="paint2_linear_45_290" x1="7032.01" y1="24207.7" x2="18137.4" y2="18584.4" gradientUnits="userSpaceOnUse">
<stop offset="0.01"/>
<stop offset="0.08" stop-opacity="0.69"/>
<stop offset="0.21" stop-opacity="0.32"/>
<stop offset="1" stop-opacity="0"/>
</linearGradient>
</defs>
</svg>
