<svg width="465" height="119" viewBox="0 0 465 119" fill="none" xmlns="http://www.w3.org/2000/svg">
<path d="M222.218 71.319C222.303 82.4682 219.111 91.1918 212.643 97.4898C206.175 103.703 197.281 106.809 185.962 106.809C179.238 106.809 173.025 105.277 167.323 102.213C161.706 99.1494 157.238 94.8089 153.918 89.1917C150.599 83.5746 148.939 77.1063 148.939 69.787V51.1483C148.939 43.9141 150.514 37.4884 153.663 31.8712C156.897 26.2541 161.28 21.9136 166.812 18.8497C172.429 15.7007 178.685 14.1262 185.579 14.1262C196.898 14.1262 205.749 17.2326 212.132 23.4455C218.601 29.5733 221.877 38.2544 221.962 49.4887H198.983C198.898 45.1481 197.707 41.7864 195.409 39.4033C193.196 37.0203 189.919 35.8288 185.579 35.8288C181.664 35.8288 178.429 37.0629 175.876 39.531C173.323 41.9991 172.046 45.4886 172.046 49.9993V70.8083C172.046 75.319 173.366 78.8511 176.004 81.4043C178.727 83.8724 182.047 85.1065 185.962 85.1065C194.898 85.1065 199.366 80.5107 199.366 71.319H222.218Z" fill="white"/>
<path d="M280.592 104.309C311.785 104.309 322.939 82.1772 326.286 60.0048L326.471 15.4559L349.561 15.4559C356.03 15.4559 361.987 17.073 367.434 20.3071C372.966 23.5412 377.349 27.9243 380.583 33.4564C383.818 38.9033 385.435 44.8609 385.435 51.3291V68.4359C385.435 74.9041 383.818 80.9042 380.583 86.4363C377.349 91.8832 372.966 96.2237 367.434 99.4579C361.987 102.692 356.03 104.309 349.561 104.309H280.592Z" fill="url(#paint0_angular_103:35)"/>
<path d="M98.9384 66.7869C99.2044 66.6982 99.6477 66.6539 100.268 66.6539C101.598 66.6539 102.618 67.0972 103.327 67.9837C104.036 68.8702 104.391 70.0671 104.391 71.5742C104.391 74.3225 103.859 76.4945 102.795 78.0903C101.731 79.5974 100.135 80.7056 98.0076 81.4149C93.9295 82.7447 89.5854 83.4096 84.9753 83.4096C81.0746 83.4096 77.3954 82.8777 73.9379 81.8138C71.3669 85.9806 68.5299 90.2803 65.427 94.713C61.8809 99.7663 58.8223 103.224 56.2513 105.086C53.769 106.947 50.932 107.878 47.7405 107.878C44.1943 107.878 41.4903 106.504 39.6286 103.756C37.8555 101.007 36.7473 96.4861 36.304 90.1917L35.6391 80.484C32.8908 87.931 30.4085 93.6048 28.1921 97.5056C26.0644 101.406 23.8924 104.11 21.676 105.618C19.5483 107.125 17.0217 107.878 14.0961 107.878C10.4612 107.878 7.57996 106.46 5.45225 103.623C3.4132 100.786 2.12771 96.3088 1.59578 90.1917C0.531927 77.78 0 66.9198 0 57.6111V52.9568C0.0886547 50.0312 0.886545 47.9921 2.39367 46.8396C3.9008 45.6871 6.16149 45.1108 9.17574 45.1108C11.4808 45.1108 13.1652 45.6428 14.229 46.7066C15.3816 47.6818 15.9578 49.3662 15.9578 51.7599C15.9578 61.9552 16.5784 75.209 17.8196 91.5215C23.8481 78.8439 29.389 65.6344 34.4423 51.8929C35.4175 49.2333 36.57 47.4602 37.8998 46.5736C39.3183 45.5984 41.0027 45.1108 42.9531 45.1108C45.3468 45.1108 46.9869 45.5984 47.8734 46.5736C48.8486 47.5488 49.3362 49.2776 49.3362 51.7599C49.3362 61.9552 49.9568 75.209 51.198 91.5215C56.5173 83.6312 60.5067 77.3368 63.1663 72.6381C61.8365 70.0671 61.1716 67.0085 61.1716 63.4623C61.1716 60.4481 61.8365 57.5225 63.1663 54.6855C64.4962 51.8486 66.3136 49.5436 68.6186 47.7705C70.9236 45.9974 73.5389 45.1108 76.4645 45.1108C79.0355 45.1108 81.1189 46.0417 82.7147 47.9035C84.3104 49.6765 85.1083 52.2918 85.1083 55.7494C85.1083 59.7388 84.0445 64.3045 81.9168 69.4465C85.2856 69.2692 89.7627 68.6043 95.3479 67.4518L98.9384 66.7869Z" fill="white"/>
<path d="M149.604 71.5742C150.757 71.5742 164.738 74.4998 153.594 78.0903C168.063 76.3615 152.264 62.1325 152.264 63.9942C177.638 54.5525 144.658 95.378 142.29 96.5748C138.966 99.8993 136.155 102.559 132.077 104.687C128.087 106.814 123.3 107.878 117.715 107.878C109.204 107.878 102.599 105.352 97.9006 100.298C93.2019 95.1563 90.8525 88.2412 90.8525 79.5531C90.8525 73.4359 92.138 67.7621 94.709 62.5314C97.28 57.2122 100.826 53.0011 105.348 49.8982C109.958 46.7953 115.144 45.2438 120.906 45.2438C126.048 45.2438 130.171 46.7953 133.274 49.8982C136.377 52.9124 137.928 57.0349 137.928 62.2655C137.928 68.3826 135.712 73.6576 131.279 78.0903C126.935 82.4344 119.488 85.8919 108.938 88.4629C111.066 92.541 114.656 94.5801 119.71 94.5801C123.344 94.5801 126.314 93.7378 128.619 92.0534C131.013 90.369 133.761 87.532 136.864 83.5426C137.928 82.2127 148.275 71.5742 149.604 71.5742ZM118.646 58.276C115.365 58.276 112.573 60.1821 110.268 63.9942C108.051 67.8064 106.943 72.4164 106.943 77.8244V78.0903C112.174 76.8491 116.296 74.9874 119.311 72.5051C122.325 70.0228 123.832 67.1415 123.832 63.8613C123.832 62.1768 123.344 60.847 122.369 59.8718C121.483 58.808 120.241 58.276 118.646 58.276Z" fill="white"/>
<path d="M400.275 15.4559H465V37.9245H423.51V49.1588H457.979V70.4785H423.51V81.8404H465V104.309H400.275V15.4559Z" fill="white"/>
<g filter="url(#filter0_d_103:35)">
<path d="M325.335 43.0406C316.145 19.8222 289.873 8.44984 266.655 17.6397C243.436 26.8295 232.064 53.1015 241.254 76.3199C250.444 99.5383 276.716 110.911 299.934 101.721C323.153 92.531 334.525 66.259 325.335 43.0406Z" fill="url(#paint1_angular_103:35)"/>
</g>
<defs>
<filter id="filter0_d_103:35" x="231.974" y="0.742558" width="117.876" height="117.875" filterUnits="userSpaceOnUse" color-interpolation-filters="sRGB">
<feFlood flood-opacity="0" result="BackgroundImageFix"/>
<feColorMatrix in="SourceAlpha" type="matrix" values="0 0 0 0 0 0 0 0 0 0 0 0 0 0 0 0 0 0 127 0" result="hardAlpha"/>
<feOffset dx="7.61766"/>
<feGaussianBlur stdDeviation="6.85589"/>
<feComposite in2="hardAlpha" operator="out"/>
<feColorMatrix type="matrix" values="0 0 0 0 0 0 0 0 0 0 0 0 0 0 0 0 0 0 0.4 0"/>
<feBlend mode="normal" in2="BackgroundImageFix" result="effect1_dropShadow_103:35"/>
<feBlend mode="normal" in="SourceGraphic" in2="effect1_dropShadow_103:35" result="shape"/>
</filter>
<radialGradient id="paint0_angular_103:35" cx="0" cy="0" r="1" gradientUnits="userSpaceOnUse" gradientTransform="translate(353.732 59.3399) rotate(157.563) scale(144.593 144.593)">
<stop stop-color="#ED3232"/>
<stop offset="0.432292" stop-color="#5832ED"/>
<stop offset="0.635417" stop-color="#5A32EA"/>
<stop offset="1"/>
</radialGradient>
<radialGradient id="paint1_angular_103:35" cx="0" cy="0" r="1" gradientUnits="userSpaceOnUse" gradientTransform="translate(283.294 59.6802) rotate(-21.5936) scale(45.2138)">
<stop/>
<stop offset="0.494792" stop-color="#32CBED"/>
<stop offset="1" stop-color="#00FF66"/>
</radialGradient>
</defs>
</svg>
